<svg id="Layer_1" data-name="Layer 1" xmlns="http://www.w3.org/2000/svg" viewBox="0 0 903 573"><defs><style>.cls-1{fill:#515a27;}.cls-2{fill:#d0b37d;}</style></defs><path class="cls-1" d="M123.11,533.07a14.08,14.08,0,0,1-7.26-2,14.67,14.67,0,0,1,0-25.28,14.41,14.41,0,0,1,14.51,0,14.65,14.65,0,0,1,0,25.28A14,14,0,0,1,123.11,533.07Zm0-27.18a12,12,0,0,0-6.25,1.7,12.7,12.7,0,0,0-4.55,4.57,12.62,12.62,0,0,0,0,12.62,12.7,12.7,0,0,0,4.55,4.57,12.32,12.32,0,0,0,12.49,0,12.41,12.41,0,0,0,4.53-4.57,12.76,12.76,0,0,0,0-12.62,12.41,12.41,0,0,0-4.53-4.57A12,12,0,0,0,123.11,505.89Z"/><path class="cls-1" d="M152.18,532.76H144V504.18h8.23a14,14,0,0,1,5.62,1.12,13,13,0,0,1,4.49,3.19,14.2,14.2,0,0,1,2.77,4.53,15.54,15.54,0,0,1,0,10.81,14.66,14.66,0,0,1-2.77,4.58,12.86,12.86,0,0,1-4.49,3.23A14,14,0,0,1,152.18,532.76Zm-6.25-2h6.25a11.09,11.09,0,0,0,8.66-3.73,11.69,11.69,0,0,0,2.35-3.9,13.91,13.91,0,0,0,0-9.41,11.54,11.54,0,0,0-2.35-3.89,11.31,11.31,0,0,0-8.66-3.65h-6.25Z"/><path class="cls-1" d="M185.77,533.07a14,14,0,0,1-7.25-2,14.65,14.65,0,0,1,0-25.28,14.41,14.41,0,0,1,14.51,0,14.65,14.65,0,0,1,0,25.28A14.08,14.08,0,0,1,185.77,533.07Zm0-27.18a12,12,0,0,0-6.24,1.7,12.62,12.62,0,0,0-4.55,4.57,12.56,12.56,0,0,0,0,12.62,12.62,12.62,0,0,0,4.55,4.57,12.32,12.32,0,0,0,12.49,0,12.56,12.56,0,0,0,4.53-4.57,12.76,12.76,0,0,0,0-12.62,12.56,12.56,0,0,0-4.53-4.57A12,12,0,0,0,185.77,505.89Z"/><path class="cls-1" d="M208.64,509.54v23.22h-2V503.83l19.79,23.66V504.18h2v29.07Z"/><path class="cls-1" d="M259.26,504.18v2H248v26.56h-2V506.2H234.59v-2Z"/><path class="cls-1" d="M277,533.07a14.08,14.08,0,0,1-7.26-2,14.67,14.67,0,0,1,0-25.28,14.43,14.43,0,0,1,14.52,0,14.67,14.67,0,0,1,0,25.28A14.1,14.1,0,0,1,277,533.07Zm0-27.18a12,12,0,0,0-6.24,1.7,12.64,12.64,0,0,0-4.56,4.57,12.62,12.62,0,0,0,0,12.62,12.64,12.64,0,0,0,4.56,4.57,12.3,12.3,0,0,0,12.48,0,12.41,12.41,0,0,0,4.53-4.57,12.76,12.76,0,0,0,0-12.62,12.41,12.41,0,0,0-4.53-4.57A12,12,0,0,0,277,505.89Z"/><path class="cls-1" d="M297.83,532.76V504.18h2v26.6h16.05v2Z"/><path class="cls-1" d="M333.4,533.07a14,14,0,0,1-7.25-2,14.65,14.65,0,0,1,0-25.28,14.41,14.41,0,0,1,14.51,0,14.34,14.34,0,0,1,5.28,5.32,14.85,14.85,0,0,1,0,14.64,14.34,14.34,0,0,1-5.28,5.32A14.08,14.08,0,0,1,333.4,533.07Zm0-27.18a12,12,0,0,0-6.24,1.7,12.64,12.64,0,0,0-4.56,4.57,12.62,12.62,0,0,0,0,12.62,12.64,12.64,0,0,0,4.56,4.57,12.32,12.32,0,0,0,12.49,0,12.56,12.56,0,0,0,4.53-4.57,12.76,12.76,0,0,0,0-12.62,12.56,12.56,0,0,0-4.53-4.57A12,12,0,0,0,333.4,505.89Z"/><path class="cls-1" d="M377.64,532.76H367.31a14,14,0,0,1-7.22-1.93,14.34,14.34,0,0,1-5.23-5.26,14.6,14.6,0,0,1,0-14.51,14.62,14.62,0,0,1,5.23-5.28,14.17,14.17,0,0,1,13-.72,14.33,14.33,0,0,1,4.78,3.43l-1.46,1.36a12.47,12.47,0,0,0-9.05-4,12.09,12.09,0,0,0-6.2,1.67,12.58,12.58,0,0,0-4.54,4.51,12.08,12.08,0,0,0-1.67,6.22,12.22,12.22,0,0,0,1.67,6.25,12.61,12.61,0,0,0,4.54,4.55,11.92,11.92,0,0,0,6.2,1.69h8.26V520.54h-9.41v-2h11.48Z"/><path class="cls-1" d="M386.61,532.76V504.18h2v28.58Z"/><path class="cls-1" d="M400.9,525.51l-3.38,7.25h-2.2l13.46-28.93,12.7,28.93h-2.15l-3.21-7.25Zm7.79-16.8-6.86,14.82h13.41Z"/><path class="cls-1" d="M442.28,532.76V504.18H460.8v2H444.26v11.26h12.89v2H444.26v11.21H460.8v2.07Z"/><path class="cls-1" d="M501.94,521.7a6.16,6.16,0,0,1,1.12,3.54,6.52,6.52,0,0,1-.79,3.1,7.76,7.76,0,0,1-2.29,2.58,12,12,0,0,1-7.17,2.19,13,13,0,0,1-3.87-.57,11.28,11.28,0,0,1-3.3-1.62,7.33,7.33,0,0,1-3-4.54l1.89-1a5,5,0,0,0,2.37,4,8.28,8.28,0,0,0,2.69,1.34,11.2,11.2,0,0,0,3.25.46,9.66,9.66,0,0,0,5.94-1.8,5,5,0,0,0,2.33-4,4.3,4.3,0,0,0-.86-2.55,6.91,6.91,0,0,0-2.4-2,16.9,16.9,0,0,0-5.18-1.19l-2.22-.35a12,12,0,0,1-3.28-1,8.71,8.71,0,0,1-3.39-2.79,6.38,6.38,0,0,1-1.23-3.76,6,6,0,0,1,.82-3.06,8.15,8.15,0,0,1,2.3-2.52,11.06,11.06,0,0,1,3.3-1.63,13,13,0,0,1,3.87-.57A12,12,0,0,1,500,506a7.12,7.12,0,0,1,3,4.48l-1.89,1.06a4.47,4.47,0,0,0-.64-2.12,6.33,6.33,0,0,0-1.69-1.84,8.49,8.49,0,0,0-2.73-1.34,11,11,0,0,0-3.21-.47,11.27,11.27,0,0,0-3.23.47,8.09,8.09,0,0,0-2.71,1.34,6.45,6.45,0,0,0-1.76,1.87,4.21,4.21,0,0,0-.61,2.13,4.47,4.47,0,0,0,1,2.7A6.94,6.94,0,0,0,488,516.4a7.5,7.5,0,0,0,2,.64q1.13.19,2.88.42l1.54.22a19.65,19.65,0,0,1,2.38.48,9,9,0,0,1,1.93.75A9.16,9.16,0,0,1,501.94,521.7Z"/><path class="cls-1" d="M512.73,525.51l-3.38,7.25h-2.2l13.46-28.93,12.7,28.93h-2.15L528,525.51Zm7.79-16.8-6.86,14.82h13.41Z"/><path class="cls-1" d="M548.88,533.07a10.46,10.46,0,0,1-4.15-.86,10.64,10.64,0,0,1-3.54-2.44,10.2,10.2,0,0,1-2.36-3.52A11.36,11.36,0,0,1,538,522V504.18h2V522a9.35,9.35,0,0,0,.68,3.52,8.54,8.54,0,0,0,1.92,2.9,9,9,0,0,0,2.9,2,8.72,8.72,0,0,0,3.38.68,8.86,8.86,0,0,0,3.43-.68,9.16,9.16,0,0,0,2.91-2,8.67,8.67,0,0,0,1.91-2.9,9.35,9.35,0,0,0,.68-3.52V504.18h2V522a11.36,11.36,0,0,1-.81,4.26,10.2,10.2,0,0,1-2.36,3.52,10.73,10.73,0,0,1-3.51,2.44A10.56,10.56,0,0,1,548.88,533.07Zm.66-36.28h3.61l-4.93,4.44h-2.28Z"/><path class="cls-1" d="M576,532.76h-8.22V504.18H576a14,14,0,0,1,5.63,1.12,13.11,13.11,0,0,1,4.49,3.19,14.2,14.2,0,0,1,2.77,4.53,15.7,15.7,0,0,1,0,10.81,14.66,14.66,0,0,1-2.77,4.58,13,13,0,0,1-4.49,3.23A14,14,0,0,1,576,532.76Zm-6.24-2H576a11.06,11.06,0,0,0,8.66-3.73,11.55,11.55,0,0,0,2.36-3.9,14.07,14.07,0,0,0,0-9.41,11.41,11.41,0,0,0-2.36-3.89A11.28,11.28,0,0,0,576,506.2h-6.24Z"/><path class="cls-1" d="M596.47,532.76V504.18H615v2H598.44v11.26h12.89v2H598.44v11.21H615v2.07Z"/><path class="cls-1" d="M638.07,532.76V504.18h2v28.58Z"/><path class="cls-1" d="M651,509.54v23.22h-2V503.83l19.79,23.66V504.18h2v29.07Z"/><path class="cls-1" d="M701.66,504.18v2H690.35v26.56h-2V506.2H677v-2Z"/><path class="cls-1" d="M708,532.76V504.18h18.51v2H710v11.26H722.9v2H710v11.21h16.53v2.07Z"/><path class="cls-1" d="M757,532.76H746.69a14,14,0,0,1-7.21-1.93,14.37,14.37,0,0,1-5.24-5.26,14.6,14.6,0,0,1,0-14.51,14.65,14.65,0,0,1,5.24-5.28,14.17,14.17,0,0,1,12.95-.72,14.39,14.39,0,0,1,4.77,3.43l-1.45,1.36a12.42,12.42,0,0,0-4.14-2.92,12.26,12.26,0,0,0-11.12.63,12.48,12.48,0,0,0-4.53,4.51,12,12,0,0,0-1.67,6.22,12.12,12.12,0,0,0,1.67,6.25,12.51,12.51,0,0,0,4.53,4.55,11.92,11.92,0,0,0,6.2,1.69H755V520.54h-9.41v-2H757Z"/><path class="cls-1" d="M782.35,532.76l-11.87-14.42H774a13.9,13.9,0,0,0,5.27-.84,7.12,7.12,0,0,0,2.6-2.13,5,5,0,0,0,1.1-3.14,5.18,5.18,0,0,0-.93-2.93A6.81,6.81,0,0,0,779.4,507a8.6,8.6,0,0,0-3.95-.87h-8v26.6h-2V504.18h10a11.15,11.15,0,0,1,3.78.63,9.43,9.43,0,0,1,3.08,1.83,8,8,0,0,1,2,2.59,7,7,0,0,1-.77,7.33,8.3,8.3,0,0,1-3.43,2.74,8.6,8.6,0,0,1-2.66.77,21.77,21.77,0,0,1-2.75.16L785,532.76Z"/><path class="cls-1" d="M796,525.51l-3.39,7.25h-2.2l13.46-28.93,12.7,28.93h-2.15l-3.21-7.25Zm7.78-16.8-6.86,14.82h13.41Z"/><path class="cls-1" d="M831,532.76h-8.22V504.18H831a14,14,0,0,1,5.63,1.12,13,13,0,0,1,4.48,3.19,14.06,14.06,0,0,1,2.78,4.53,15.7,15.7,0,0,1,0,10.81,14.5,14.5,0,0,1-2.78,4.58,12.83,12.83,0,0,1-4.48,3.23A14,14,0,0,1,831,532.76Zm-6.24-2H831a11.07,11.07,0,0,0,8.66-3.73,11.71,11.71,0,0,0,2.36-3.9,14.07,14.07,0,0,0,0-9.41,11.57,11.57,0,0,0-2.36-3.89A11.28,11.28,0,0,0,831,506.2h-6.24Z"/><path class="cls-1" d="M853,525.51l-3.39,7.25h-2.2l13.46-28.93,12.71,28.93H871.4l-3.21-7.25Zm7.78-16.8-6.86,14.82h13.41Z"/><polygon class="cls-1" points="124.54 167.76 114.97 167.76 21.06 370.66 31.79 370.66 59.08 311.24 62.94 302.83 119.75 179.16 176.57 302.83 180.43 311.24 207.72 370.66 218.45 370.66 124.54 167.76"/><path class="cls-1" d="M331.49,371.82q-37.11,0-58.41-21.74t-21.3-64.93V167.76h9.86v117.1q0,39.42,18.26,58.7t51.59,19.27c22.12,0,37.51-13.12,48-31.45,13-22.67,11.21-53.76,11-79l-.66-84.57h9.73l.23,102.66c0,18.59,0,37.64-6.46,55.07C383.85,351.12,359.8,371.82,331.49,371.82Z"/><path class="cls-1" d="M511.37,301l-1.8-2.51c.68-.19,1.37-.35,2-.56a80.67,80.67,0,0,0,9.48-3.54q18.12-8.12,27.68-23.19T558.34,235q0-21.15-9.57-36.09t-27.68-23q-18.11-8.12-43.33-8.12H432.54v202.9h9.85V176.75h35.95q34.2,0,52.32,15.22t18.11,43q0,27.83-18.11,43.19-9.64,8.18-23.86,12a93.21,93.21,0,0,1-13.46,2.54l6,8.1.86,1.17h0l49.76,68.67h11.6Z"/><polygon class="cls-1" points="697.46 167.76 687.9 167.76 593.99 370.66 604.71 370.66 632.01 311.24 635.87 302.83 692.68 179.16 749.49 302.83 753.35 311.24 780.65 370.66 791.37 370.66 697.46 167.76"/><polygon class="cls-2" points="878 475.76 108.54 475.76 108.54 423.62 121.12 423.62 121.12 463.18 865.42 463.18 865.42 48.56 121.12 48.56 121.12 106.31 108.54 106.31 108.54 35.98 878 35.98 878 475.76"/></svg>